<?xml version="1.0" encoding="UTF-8"?>
<svg id="Layer_1" xmlns="http://www.w3.org/2000/svg" version="1.1" viewBox="0 0 1133.86 1133.86">
  <!-- Generator: Adobe Illustrator 30.3.0, SVG Export Plug-In . SVG Version: 2.1.3 Build 182)  -->
  <defs>
    <style>
      .st0 {
        fill: none;
        stroke: #000;
        stroke-linecap: round;
        stroke-linejoin: round;
      }
    </style>
  </defs>
  <g id="RC1006">
    <g>
      <path class="st0" d="M533.75,996.11"/>
      <path class="st0" d="M533.75,1005.26"/>
      <line class="st0" x1="885.61" y1="827.53" x2="885.61" y2="818.93"/>
      <line class="st0" x1="893.54" y1="560.36" x2="893.54" y2="814.31"/>
      <line class="st0" x1="533.75" y1="667.54" x2="541.69" y2="672.09"/>
      <path class="st0" d="M533.75,1012.87"/>
      <path class="st0" d="M541.69,1017.45"/>
      <line class="st0" x1="893.54" y1="814.31" x2="541.69" y2="1017.45"/>
      <line class="st0" x1="541.69" y1="672.09" x2="541.69" y2="1017.45"/>
      <line class="st0" x1="179.69" y1="808.46" x2="180.14" y2="455.08"/>
      <line class="st0" x1="531.58" y1="250.84" x2="958.4" y2="497.26"/>
      <line class="st0" x1="179.72" y1="463.13" x2="179.72" y2="453.97"/>
      <line class="st0" x1="179.72" y1="453.97" x2="531.58" y2="250.84"/>
      <line class="st0" x1="606.54" y1="700.4" x2="179.72" y2="453.97"/>
      <line class="st0" x1="179.72" y1="463.13" x2="533.75" y2="667.54"/>
      <line class="st0" x1="541.69" y1="672.09" x2="606.54" y2="709.55"/>
      <line class="st0" x1="533.75" y1="667.54" x2="541.69" y2="672.09"/>
      <line class="st0" x1="964.32" y1="514.67" x2="964.25" y2="515.69"/>
      <line class="st0" x1="964.25" y1="515.69" x2="964.03" y2="516.68"/>
      <line class="st0" x1="964.03" y1="516.68" x2="963.64" y2="517.68"/>
      <line class="st0" x1="963.64" y1="517.68" x2="963.1" y2="518.67"/>
      <line class="st0" x1="963.1" y1="518.67" x2="962.43" y2="519.6"/>
      <line class="st0" x1="962.43" y1="519.6" x2="961.6" y2="520.52"/>
      <line class="st0" x1="961.6" y1="520.52" x2="960.67" y2="521.36"/>
      <line class="st0" x1="960.67" y1="521.36" x2="959.58" y2="522.19"/>
      <line class="st0" x1="959.58" y1="522.19" x2="958.4" y2="522.92"/>
      <line class="st0" x1="958.4" y1="522.92" x2="635.18" y2="709.55"/>
      <line class="st0" x1="635.18" y1="709.55" x2="633.87" y2="710.23"/>
      <line class="st0" x1="633.87" y1="710.23" x2="632.46" y2="710.87"/>
      <line class="st0" x1="632.46" y1="710.87" x2="630.99" y2="711.41"/>
      <line class="st0" x1="630.99" y1="711.41" x2="629.42" y2="711.86"/>
      <line class="st0" x1="629.42" y1="711.86" x2="627.79" y2="712.27"/>
      <line class="st0" x1="627.79" y1="712.27" x2="626.09" y2="712.56"/>
      <line class="st0" x1="626.09" y1="712.56" x2="624.36" y2="712.79"/>
      <line class="st0" x1="624.36" y1="712.79" x2="622.6" y2="712.91"/>
      <line class="st0" x1="622.6" y1="712.91" x2="620.84" y2="712.98"/>
      <line class="st0" x1="620.84" y1="712.98" x2="619.08" y2="712.91"/>
      <line class="st0" x1="619.08" y1="712.91" x2="617.32" y2="712.79"/>
      <line class="st0" x1="617.32" y1="712.79" x2="615.6" y2="712.56"/>
      <line class="st0" x1="615.6" y1="712.56" x2="613.93" y2="712.27"/>
      <line class="st0" x1="613.93" y1="712.27" x2="612.3" y2="711.86"/>
      <line class="st0" x1="612.3" y1="711.86" x2="610.73" y2="711.41"/>
      <line class="st0" x1="610.73" y1="711.41" x2="609.23" y2="710.87"/>
      <line class="st0" x1="609.23" y1="710.87" x2="607.82" y2="710.23"/>
      <line class="st0" x1="607.82" y1="710.23" x2="606.54" y2="709.55"/>
      <line class="st0" x1="963.1" y1="509.52" x2="962.43" y2="510.48"/>
      <line class="st0" x1="963.64" y1="508.56" x2="963.1" y2="509.52"/>
      <line class="st0" x1="964.03" y1="507.57" x2="963.64" y2="508.56"/>
      <line class="st0" x1="964.25" y1="506.54" x2="964.03" y2="507.57"/>
      <line class="st0" x1="964.32" y1="514.67" x2="964.32" y2="505.52"/>
      <line class="st0" x1="964.32" y1="505.52" x2="964.25" y2="506.54"/>
      <line class="st0" x1="964.25" y1="504.49" x2="964.32" y2="505.52"/>
      <line class="st0" x1="959.58" y1="513.04" x2="958.4" y2="513.81"/>
      <line class="st0" x1="964.03" y1="503.5" x2="964.25" y2="504.49"/>
      <line class="st0" x1="963.64" y1="502.48" x2="964.03" y2="503.5"/>
      <line class="st0" x1="963.1" y1="501.52" x2="963.64" y2="502.48"/>
      <line class="st0" x1="962.43" y1="500.59" x2="963.1" y2="501.52"/>
      <line class="st0" x1="961.6" y1="499.66" x2="962.43" y2="500.59"/>
      <line class="st0" x1="960.67" y1="498.8" x2="961.6" y2="499.66"/>
      <line class="st0" x1="959.58" y1="498" x2="960.67" y2="498.8"/>
      <line class="st0" x1="958.4" y1="497.26" x2="959.58" y2="498"/>
      <line class="st0" x1="607.82" y1="701.08" x2="606.54" y2="700.4"/>
      <line class="st0" x1="609.23" y1="701.72" x2="607.82" y2="701.08"/>
      <line class="st0" x1="610.73" y1="702.26" x2="609.23" y2="701.72"/>
      <line class="st0" x1="960.67" y1="512.24" x2="959.58" y2="513.04"/>
      <line class="st0" x1="612.3" y1="702.74" x2="610.73" y2="702.26"/>
      <line class="st0" x1="613.93" y1="703.12" x2="612.3" y2="702.74"/>
      <line class="st0" x1="613.93" y1="703.12" x2="615.6" y2="703.41"/>
      <line class="st0" x1="615.6" y1="703.41" x2="617.32" y2="703.64"/>
      <line class="st0" x1="617.32" y1="703.64" x2="619.08" y2="703.8"/>
      <line class="st0" x1="619.08" y1="703.8" x2="620.84" y2="703.83"/>
      <line class="st0" x1="620.84" y1="703.83" x2="622.6" y2="703.8"/>
      <line class="st0" x1="622.6" y1="703.8" x2="624.36" y2="703.64"/>
      <line class="st0" x1="624.36" y1="703.64" x2="626.09" y2="703.41"/>
      <line class="st0" x1="626.09" y1="703.41" x2="627.79" y2="703.12"/>
      <line class="st0" x1="627.79" y1="703.12" x2="629.42" y2="702.74"/>
      <line class="st0" x1="629.42" y1="702.74" x2="630.99" y2="702.26"/>
      <line class="st0" x1="630.99" y1="702.26" x2="632.46" y2="701.72"/>
      <line class="st0" x1="632.46" y1="701.72" x2="633.87" y2="701.08"/>
      <line class="st0" x1="633.87" y1="701.08" x2="635.18" y2="700.4"/>
      <line class="st0" x1="635.18" y1="700.4" x2="958.4" y2="513.81"/>
      <line class="st0" x1="960.67" y1="512.24" x2="961.6" y2="511.37"/>
      <line class="st0" x1="961.6" y1="511.37" x2="962.43" y2="510.48"/>
      <line class="st0" x1="187.62" y1="813.04" x2="187.62" y2="821.68"/>
      <line class="st0" x1="541.69" y1="1017.46" x2="541.69" y2="1026.1"/>
      <line class="st0" x1="541.69" y1="1026.1" x2="885.61" y2="827.53"/>
      <line class="st0" x1="187.62" y1="821.68" x2="541.69" y2="1026.1"/>
      <line class="st0" x1="533.75" y1="667.54" x2="533.75" y2="1012.87"/>
      <line class="st0" x1="893.54" y1="814.32" x2="541.69" y2="1017.46"/>
      <line class="st0" x1="533.75" y1="1012.88" x2="541.69" y2="1017.46"/>
      <line class="st0" x1="179.69" y1="808.46" x2="533.75" y2="1012.88"/>
    </g>
  </g>
</svg>